<?xml version="1.0" standalone="no"?>
<!DOCTYPE svg PUBLIC "-//W3C//DTD SVG 20010904//EN"
 "http://www.w3.org/TR/2001/REC-SVG-20010904/DTD/svg10.dtd">
<svg version="1.0" xmlns="http://www.w3.org/2000/svg"
 width="235.000000pt" height="114.000000pt" viewBox="0 0 235.000000 114.000000"
 preserveAspectRatio="xMidYMid meet">

<g transform="translate(0.000000,114.000000) scale(0.100000,-0.100000)"
fill="#fbd417" stroke="none">
<path d="M351 1004 c-12 -30 -21 -60 -21 -66 0 -6 -34 -47 -76 -90 -56 -59
-75 -85 -71 -100 4 -12 -23 -70 -75 -165 l-81 -145 24 -23 c13 -13 48 -33 77
-44 l53 -19 20 44 c18 37 27 44 57 50 72 13 127 43 154 85 l27 41 16 -33 c34
-65 -11 -181 -85 -219 -64 -33 -107 -84 -124 -150 -4 -16 1 -12 14 13 21 38
22 38 41 21 19 -17 19 -18 -5 -43 -13 -14 -29 -37 -35 -51 l-12 -25 18 21 c48
56 61 59 293 59 198 0 220 2 280 23 195 68 293 252 249 464 -12 59 -56 148
-95 193 -21 25 -27 27 -35 15 -9 -13 -10 -12 -5 2 7 22 -42 63 -109 94 -70 31
-110 40 -62 14 l38 -21 -35 -39 c-19 -21 -42 -53 -51 -70 -18 -35 -15 -35 -73
5 -42 30 -42 30 -40 90 1 46 -2 60 -13 60 -9 0 -16 -15 -19 -48 -3 -26 -8 -48
-13 -48 -4 0 -32 5 -62 11 -42 9 -56 16 -61 33 -9 32 -57 106 -71 111 -7 3
-20 -17 -32 -50z m562 -135 c73 -80 76 -93 23 -109 -22 -6 -64 -25 -93 -41
l-51 -29 -26 46 c-25 44 -25 47 -9 77 19 39 82 117 93 117 5 0 33 -27 63 -61z
m-273 -29 c0 -5 -4 -10 -10 -10 -5 0 -10 5 -10 10 0 6 5 10 10 10 6 0 10 -4
10 -10z m342 -22 c-7 -7 -12 -8 -12 -2 0 14 12 26 19 19 2 -3 -1 -11 -7 -17z
m-311 -11 c-13 -13 -26 -3 -16 12 3 6 11 8 17 5 6 -4 6 -10 -1 -17z m336 -24
c-3 -3 -11 -2 -17 2 -9 6 -9 10 1 16 14 8 27 -7 16 -18z m-294 -24 c-17 -17
-37 -1 -22 17 8 10 15 12 23 4 7 -7 7 -13 -1 -21z m327 -8 c0 -12 -20 -25 -27
-18 -7 7 6 27 18 27 5 0 9 -4 9 -9z m-299 -45 c-27 -12 -38 -1 -21 19 10 12
16 13 27 3 13 -11 12 -14 -6 -22z m270 -13 c14 -47 17 -198 5 -210 -6 -6 -192
42 -213 55 -7 5 -9 27 -4 66 5 55 9 61 41 79 45 26 120 56 141 57 11 0 21 -16
30 -47z m-747 22 c3 -9 -1 -18 -10 -22 -19 -7 -39 11 -30 26 10 16 33 13 40
-4z m801 -14 c3 -6 -3 -15 -14 -21 -24 -12 -42 7 -20 21 18 11 26 11 34 0z
m-285 -56 c0 -10 -10 -15 -30 -15 -29 0 -38 9 -23 23 13 13 53 7 53 -8z m300
-10 c0 -9 -9 -15 -25 -15 -24 0 -32 10 -18 23 12 13 43 7 43 -8z m10 -60 c0
-9 -9 -15 -25 -15 -16 0 -25 6 -25 15 0 9 9 15 25 15 16 0 25 -6 25 -15z
m-323 -10 c7 -21 2 -25 -25 -18 -12 3 -22 12 -22 19 0 19 39 18 47 -1z m323
-50 c0 -10 -10 -15 -30 -15 -20 0 -30 5 -30 15 0 10 10 15 30 15 20 0 30 -5
30 -15z m-360 -20 c7 -9 10 -18 7 -21 -10 -10 -47 7 -47 22 0 19 24 18 40 -1z
m173 -21 c93 -28 97 -30 92 -53 -9 -34 -62 -113 -92 -135 l-25 -19 -76 76 -75
76 24 46 c15 29 29 44 39 42 8 -2 59 -17 113 -33z m176 -20 c3 -2 0 -9 -5 -14
-13 -13 -54 -1 -54 17 0 12 7 13 27 8 16 -4 30 -9 32 -11z m-390 -8 c9 -10 9
-16 1 -21 -13 -8 -42 14 -34 26 8 13 20 11 33 -5z m352 -36 c24 -13 25 -30 2
-30 -26 0 -47 16 -39 29 9 14 12 14 37 1z m-410 -13 c-1 -12 -15 -9 -19 4 -3
6 1 10 8 8 6 -3 11 -8 11 -12z m149 -73 c83 -83 83 -83 -4 -109 -88 -27 -97
-23 -131 53 -16 37 -30 70 -30 74 0 8 74 57 85 58 3 0 39 -34 80 -76z m-190
46 c0 -5 -2 -10 -4 -10 -3 0 -8 5 -11 10 -3 6 -1 10 4 10 6 0 11 -4 11 -10z
m430 -37 c0 -16 -6 -16 -30 -3 -11 6 -17 17 -14 25 5 11 10 12 25 2 10 -6 19
-17 19 -24z m-408 -68 c18 -35 29 -67 25 -71 -3 -3 -34 -3 -69 1 l-63 7 -26
54 -26 54 36 6 c20 3 41 7 46 9 34 12 47 2 77 -60z m357 32 c6 -8 8 -17 5 -20
-10 -9 -45 13 -39 24 9 13 21 11 34 -4z m-525 -39 c14 -23 23 -45 20 -50 -3
-4 -31 -8 -63 -8 -45 0 -62 4 -75 19 -10 11 -15 25 -11 31 7 11 81 49 97 50 4
0 18 -19 32 -42z m496 -9 c0 -12 -27 -11 -35 1 -11 17 5 32 21 19 8 -6 14 -15
14 -20z m-45 -10 c10 -15 -1 -23 -20 -15 -9 3 -13 10 -10 16 8 13 22 13 30 -1z
m-48 -36 c-3 -3 -11 -2 -17 2 -9 6 -9 10 1 16 14 8 27 -7 16 -18z m-42 -3 c3
-5 -1 -10 -9 -10 -9 0 -16 5 -16 10 0 6 4 10 9 10 6 0 13 -4 16 -10z"/>
<path d="M1167 633 c-9 -8 -9 -106 -1 -127 9 -23 104 -23 104 0 0 12 -9 15
-37 12 l-38 -3 0 50 0 50 38 -2 c26 -1 37 3 37 13 0 10 -13 14 -48 14 -27 0
-52 -3 -55 -7z"/>
<path d="M1330 630 c0 -5 7 -10 15 -10 8 0 15 5 15 10 0 6 -7 10 -15 10 -8 0
-15 -4 -15 -10z"/>
<path d="M1710 630 c0 -9 14 -14 33 -11 4 0 7 -28 7 -64 0 -58 2 -65 20 -65
18 0 20 7 20 59 0 51 3 61 20 66 39 12 19 25 -40 25 -33 0 -60 -4 -60 -10z"/>
<path d="M2158 613 c-6 -56 3 -123 18 -123 10 0 14 13 14 45 0 38 3 45 20 45
13 0 20 -7 21 -20 1 -11 2 -30 3 -42 0 -13 9 -24 19 -26 14 -3 17 4 17 36 0
60 -8 72 -46 72 -27 0 -34 4 -34 20 0 31 -28 24 -32 -7z"/>
<path d="M1595 602 c-26 -6 -35 -20 -35 -57 0 -42 16 -55 67 -55 33 0 43 4 43
16 0 13 -7 15 -34 10 -20 -4 -37 -2 -41 4 -6 10 0 12 45 14 21 1 25 6 25 30 0
23 -5 31 -25 36 -14 3 -34 4 -45 2z m45 -32 c0 -5 -9 -10 -20 -10 -11 0 -20 5
-20 10 0 6 9 10 20 10 11 0 20 -4 20 -10z"/>
<path d="M1876 598 c-11 -6 -16 -23 -16 -52 0 -48 9 -56 66 -56 43 0 45 18 2
22 -42 4 -38 23 5 23 29 0 32 3 32 30 0 26 -4 30 -37 36 -20 3 -44 2 -52 -3z
m64 -29 c0 -5 -11 -9 -25 -9 -28 0 -34 16 -7 23 20 4 32 -1 32 -14z"/>
<path d="M1310 591 c0 -6 5 -13 10 -16 6 -3 10 -24 10 -46 0 -28 4 -39 15 -39
12 0 15 13 15 55 0 52 -1 55 -25 55 -14 0 -25 -4 -25 -9z"/>
<path d="M1410 544 c0 -41 4 -54 15 -54 11 0 15 12 15 46 0 41 2 45 23 42 18
-2 23 -10 25 -45 2 -30 8 -43 18 -43 12 0 14 11 12 53 l-3 52 -52 2 -53 1 0
-54z"/>
<path d="M2022 588 c-7 -7 -12 -26 -12 -43 0 -41 16 -55 62 -55 28 0 38 4 38
16 0 13 -7 15 -29 11 -23 -5 -30 -2 -34 14 -9 33 3 49 34 49 16 0 29 5 29 10
0 14 -74 12 -88 -2z"/>
</g>
</svg>
