<?xml version="1.0" standalone="no"?>
<!DOCTYPE svg PUBLIC "-//W3C//DTD SVG 20010904//EN"
 "http://www.w3.org/TR/2001/REC-SVG-20010904/DTD/svg10.dtd">
<svg version="1.0" xmlns="http://www.w3.org/2000/svg"
 width="300.000000pt" height="300.000000pt" viewBox="0 0 300.000000 300.000000"
 preserveAspectRatio="xMidYMid meet">

<g transform="translate(0.000000,300.000000) scale(0.100000,-0.100000)"
fill="#fbd417" stroke="none">
<path d="M1159 2563 c-31 -71 -59 -154 -59 -175 0 -10 -44 -61 -100 -114 -120
-116 -165 -181 -156 -225 5 -25 -8 -54 -78 -177 -122 -214 -186 -336 -186
-355 0 -20 44 -63 91 -87 49 -26 141 -60 159 -60 9 0 30 31 50 73 l35 72 100
25 c150 38 219 86 257 178 l13 34 22 -31 c62 -83 53 -181 -28 -305 -43 -65
-58 -80 -107 -103 -81 -39 -173 -134 -199 -203 -11 -30 -24 -71 -27 -90 -5
-26 2 -16 28 37 19 40 39 73 44 73 4 0 21 -14 37 -30 l30 -31 -32 -24 c-34
-27 -87 -106 -97 -145 -6 -23 -6 -24 5 -5 30 47 94 105 141 125 49 21 57 21
342 15 318 -8 403 -1 541 40 286 87 465 332 466 637 0 169 -33 291 -117 425
-81 130 -194 228 -347 298 -75 35 -195 70 -205 61 -3 -3 0 -6 7 -6 15 0 171
-71 171 -78 0 -3 -18 -22 -39 -44 -22 -21 -61 -71 -87 -111 -26 -39 -51 -76
-55 -80 -4 -5 -33 12 -64 38 -32 26 -69 52 -83 58 -25 11 -25 12 -19 119 l6
108 -28 0 -28 0 -8 -91 -7 -91 -26 6 c-15 4 -64 14 -110 23 -74 16 -83 20 -89
43 -19 77 -106 220 -134 220 -5 0 -19 -21 -30 -47z m927 -245 c51 -47 154
-187 154 -209 0 -5 -7 -9 -15 -9 -29 0 -112 -33 -217 -86 l-106 -54 -11 32
c-6 17 -25 53 -42 79 -30 47 -30 48 -13 81 44 86 153 218 180 218 7 0 38 -24
70 -52z m78 -29 c-3 -5 -10 -7 -15 -3 -5 3 -7 10 -3 15 3 5 10 7 15 3 5 -3 7
-10 3 -15z m-639 1 c3 -5 1 -10 -4 -10 -6 0 -11 5 -11 10 0 6 2 10 4 10 3 0 8
-4 11 -10z m55 -30 c0 -5 -4 -10 -10 -10 -5 0 -10 5 -10 10 0 6 5 10 10 10 6
0 10 -4 10 -10z m625 -20 c-5 -8 -11 -8 -17 -2 -6 6 -7 16 -3 22 5 8 11 8 17
2 6 -6 7 -16 3 -22z m-559 -11 c10 -17 -13 -36 -27 -22 -12 12 -4 33 11 33 5
0 12 -5 16 -11z m607 -40 c-17 -17 -37 -1 -22 17 8 10 15 12 23 4 7 -7 7 -13
-1 -21z m-543 -13 c0 -7 -5 -17 -12 -24 -18 -18 -40 5 -28 29 11 19 40 16 40
-5z m590 -30 c0 -7 -6 -19 -14 -25 -19 -16 -41 10 -24 27 16 16 38 15 38 -2z
m-519 -32 c11 -14 10 -19 -11 -36 -21 -17 -25 -17 -39 -4 -13 14 -13 18 4 36
22 24 29 25 46 4z m572 -48 c3 -8 -5 -18 -20 -25 -27 -12 -43 -7 -43 14 0 24
54 34 63 11z m-76 -39 c29 -63 45 -181 41 -290 -3 -62 -9 -120 -13 -130 -10
-24 -28 -20 -233 42 -136 41 -157 51 -154 67 2 10 3 58 4 105 l0 87 112 56
c96 49 182 82 222 85 6 1 16 -9 21 -22z m-436 -3 c13 -16 12 -19 -35 -45 -14
-8 -21 -8 -27 2 -14 23 -10 35 14 47 30 15 33 14 48 -4z m-863 -6 c30 -30 -3
-77 -40 -57 -18 9 -25 49 -11 62 10 11 38 8 51 -5z m1412 -46 c0 -20 -45 -46
-61 -37 -16 10 -10 43 9 48 37 10 52 7 52 -11z m-507 -84 c9 -31 1 -38 -44
-38 -28 0 -39 4 -39 15 0 8 0 18 -1 23 0 7 34 19 62 21 9 1 19 -9 22 -21z
m537 -22 c0 -23 -21 -36 -62 -36 -28 0 -24 47 5 53 50 10 57 7 57 -17z m-540
-141 c0 -33 -9 -35 -56 -15 -36 16 -41 22 -37 43 5 25 5 25 49 10 35 -12 44
-20 44 -38z m550 30 c0 -22 -4 -25 -39 -25 -42 0 -57 11 -47 35 3 10 20 15 46
15 36 0 40 -2 40 -25z m-22 -81 c16 -5 22 -13 20 -28 -2 -11 -9 -21 -15 -20
-7 1 -26 2 -43 3 -25 1 -30 5 -30 26 0 26 19 32 68 19z m-622 -45 c36 -22 42
-37 22 -57 -10 -10 -24 -4 -76 34 -6 4 9 44 15 44 3 0 21 -9 39 -21z m282 -39
c93 -27 176 -50 185 -50 32 0 29 -29 -9 -107 -26 -52 -62 -102 -105 -148 l-67
-70 -136 135 c-75 74 -136 137 -136 140 0 8 92 150 97 150 1 0 79 -22 171 -50z
m334 -36 c11 -7 10 -32 -2 -39 -5 -3 -28 -1 -50 6 -38 11 -49 26 -33 43 7 7
70 -1 85 -10z m-674 -19 c26 -24 26 -25 7 -39 -26 -20 -29 -20 -49 3 -11 13
-15 27 -11 40 8 27 20 26 53 -4z m625 -67 c22 -8 26 -14 21 -32 -4 -11 -8 -22
-9 -24 -5 -6 -85 30 -85 38 0 24 14 41 29 35 9 -4 29 -12 44 -17z m-722 -9
c16 -30 -3 -45 -25 -20 -10 11 -15 25 -11 30 10 17 23 13 36 -10z m255 -141
c124 -124 131 -133 113 -146 -58 -40 -289 -94 -289 -67 0 7 -27 65 -60 130
-34 65 -60 119 -58 120 2 1 29 17 60 34 31 18 62 39 68 46 7 8 17 15 22 15 6
0 70 -59 144 -132z m-326 92 c9 -17 8 -20 -9 -20 -22 0 -35 15 -26 30 10 16
23 12 35 -10z m-90 -35 c0 -8 -7 -15 -15 -15 -16 0 -20 12 -8 23 11 12 23 8
23 -8z m825 -9 c28 -23 29 -26 14 -41 -17 -17 -21 -16 -77 21 -9 6 10 44 21
44 7 0 26 -11 42 -24z m-905 -10 c0 -11 -19 -15 -25 -6 -3 5 1 10 9 10 9 0 16
-2 16 -4z m-80 -20 c0 -2 -7 -6 -15 -10 -8 -3 -15 -1 -15 4 0 6 7 10 15 10 8
0 15 -2 15 -4z m277 -103 c78 -149 78 -143 -4 -143 -37 0 -90 3 -118 6 l-50 7
-45 91 c-25 50 -46 93 -48 96 -2 5 146 33 198 38 10 1 34 -33 67 -95z m-357
77 c0 -5 -8 -10 -17 -10 -15 0 -16 2 -3 10 19 12 20 12 20 0z m993 -34 c24
-20 26 -24 13 -35 -15 -12 -24 -10 -65 18 -12 8 -12 12 -2 25 17 20 20 20 54
-8z m-1068 -6 c-3 -5 -10 -10 -16 -10 -5 0 -9 5 -9 10 0 6 7 10 16 10 8 0 12
-4 9 -10z m154 -78 c50 -85 48 -87 -74 -87 l-105 0 -36 36 -36 36 34 26 c19
15 63 37 98 51 73 27 63 32 119 -62z m845 19 c18 -20 14 -41 -7 -41 -22 1 -50
29 -44 45 9 21 30 19 51 -4z m-61 -72 c-14 -14 -41 -5 -50 17 -10 26 19 36 42
14 14 -15 16 -23 8 -31z m-75 -16 c5 -18 -28 -29 -38 -12 -5 7 -6 17 -3 22 7
12 35 5 41 -10z m-78 -34 c0 -4 -9 -9 -20 -12 -27 -7 -37 13 -15 30 15 10 20
10 27 0 4 -6 8 -15 8 -18z m-90 -14 c0 -8 -7 -15 -15 -15 -8 0 -15 7 -15 15 0
8 7 15 15 15 8 0 15 -7 15 -15z m-480 -5 c0 -5 -4 -10 -10 -10 -5 0 -10 5 -10
10 0 6 5 10 10 10 6 0 10 -4 10 -10z m65 0 c3 -5 1 -10 -4 -10 -6 0 -11 5 -11
10 0 6 2 10 4 10 3 0 8 -4 11 -10z m345 2 c0 -13 -12 -22 -22 -16 -10 6 -1 24
13 24 5 0 9 -4 9 -8z m-280 -12 c0 -5 -4 -10 -10 -10 -5 0 -10 5 -10 10 0 6 5
10 10 10 6 0 10 -4 10 -10z m70 0 c0 -5 -7 -10 -15 -10 -8 0 -15 5 -15 10 0 6
7 10 15 10 8 0 15 -4 15 -10z m70 0 c0 -5 -7 -10 -15 -10 -8 0 -15 5 -15 10 0
6 7 10 15 10 8 0 15 -4 15 -10z m70 0 c0 -5 -4 -10 -10 -10 -5 0 -10 5 -10 10
0 6 5 10 10 10 6 0 10 -4 10 -10z"/>
<path d="M835 642 c-3 -3 -5 -14 -5 -24 0 -13 8 -18 30 -18 23 0 30 5 30 19 0
18 -42 36 -55 23z"/>
<path d="M567 622 c-13 -15 -17 -39 -17 -115 0 -92 1 -97 25 -113 34 -22 168
-8 173 19 3 15 -5 17 -67 17 l-71 0 0 80 0 80 38 2 c20 1 51 2 67 3 23 1 31 6
33 23 3 21 0 22 -81 22 -69 0 -87 -3 -100 -18z"/>
<path d="M1487 634 c-3 -4 -2 -15 4 -26 8 -15 18 -19 40 -16 l29 5 0 -104 0
-103 30 0 c22 0 30 5 31 18 0 9 1 55 2 102 l2 85 30 1 c45 3 45 3 45 24 0 19
-7 20 -103 20 -57 0 -107 -3 -110 -6z"/>
<path d="M2250 515 l0 -125 30 0 30 0 0 76 0 75 36 -3 37 -3 1 -70 c1 -69 2
-70 29 -73 l27 -3 0 85 c0 99 -10 110 -86 104 -44 -3 -44 -3 -44 29 0 30 -3
33 -30 33 l-30 0 0 -125z"/>
<path d="M970 485 l0 -95 30 0 30 0 0 70 0 70 40 0 40 0 0 -71 0 -70 28 3 c26
3 27 5 30 72 4 87 -12 116 -64 116 -19 0 -44 -5 -54 -10 -13 -7 -21 -7 -25 0
-3 5 -17 10 -31 10 -24 0 -24 -1 -24 -95z"/>
<path d="M1256 564 c-12 -11 -16 -35 -16 -84 0 -63 2 -71 25 -86 36 -23 155
-10 155 17 0 17 -8 19 -65 19 -52 0 -63 3 -59 15 4 10 25 15 67 17 l62 3 -2
45 c-1 29 -8 49 -19 57 -26 19 -129 17 -148 -3z m112 -46 c3 -15 -4 -18 -32
-18 -30 0 -36 4 -36 21 0 17 5 20 32 17 22 -2 34 -9 36 -20z"/>
<path d="M1766 567 c-13 -10 -18 -28 -18 -72 -1 -78 8 -104 38 -111 36 -9 132
5 137 21 9 21 -2 25 -65 25 -43 0 -59 3 -56 13 3 7 28 13 66 15 l62 3 0 44 c0
60 -18 75 -89 75 -31 0 -65 -6 -75 -13z m104 -47 c0 -16 -7 -20 -35 -20 -22 0
-35 5 -35 13 0 20 10 27 42 27 21 0 28 -5 28 -20z"/>
<path d="M2026 567 c-20 -15 -31 -81 -22 -131 9 -48 33 -59 112 -51 53 6 64
10 64 26 0 15 -9 18 -57 21 l-58 3 0 45 0 45 55 5 c48 4 55 8 58 28 3 21 0 22
-65 22 -41 0 -76 -5 -87 -13z"/>
<path d="M807 550 c-3 -13 0 -20 9 -20 11 0 14 -17 14 -70 l0 -70 30 0 30 0 0
90 0 90 -39 0 c-30 0 -40 -4 -44 -20z"/>
</g>
</svg>
